#!OML:ASF F:\VICON\USERDATA\INSTALL\rory3\rory3.ASF
:FULLY-SPECIFIED
:DEGREES
2007
root 0.305979 17.2433 -1.58852 2.27868 10.4354 0.735465
lowerback 7.21788 2.14066 -3.62058
upperback 11.3331 2.66896 3.55814
thorax 7.60284 0.900464 5.79056
lowerneck 24.0984 -18.4381 -28.0783
upperneck 23.7934 -31.7455 14.2502
head 11.28 -17.1387 6.77023
rclavicle 1.70955e-014 -6.67916e-014
rhumerus 65.9953 -5.46944 -103.153
rradius 16.7606
rwrist 76.7092
rhand -48.9891 31.9639
rfingers 7.12502
rthumb -21.6186 3.15075
lclavicle 1.70955e-014 -6.67916e-014
lhumerus 47.4167 24.6637 13.9223
lradius 116.168
lwrist 56.8612
lhand 19.2697 22.558
lfingers 7.12502
lthumb 43.8542 46.4951
rfemur -10.9004 4.40821 16.3232
rtibia 24.3025
rfoot -13.6626 -14.5999
rtoes -25.4015
lfemur -15.789 -17.2462 -18.1203
ltibia 25.5111
lfoot -11.9999 1.8794
ltoes -22.3803
2008
root 0.305275 17.2482 -1.60688 2.56945 10.5704 0.853382
lowerback 7.32831 2.17301 -3.59703
upperback 11.4707 2.70926 3.60056
thorax 7.68847 0.915675 5.82379
lowerneck 24.1775 -18.4787 -28.0036
upperneck 23.725 -31.7502 14.2343
head 11.2256 -17.1311 6.76841
rclavicle -3.89618e-014 -1.11319e-014
rhumerus 65.8964 -5.7842 -103.549
rradius 16.8447
rwrist 77.1534
rhand -49.2122 33.3043
rfingers 7.12502
rthumb -21.8328 4.51591
lclavicle -3.89618e-014 -1.11319e-014
lhumerus 47.1398 24.6585 13.3104
lradius 116.2
lwrist 56.9211
lhand 18.7903 22.4994
lfingers 7.12502
lthumb 43.4066 46.6001
rfemur -11.2812 4.3384 16.1783
rtibia 24.3448
rfoot -13.2249 -14.7528
rtoes -26.7301
lfemur -16.1006 -17.3232 -18.1384
ltibia 25.3581
lfoot -11.8559 1.85612
ltoes -22.9326
2009
root 0.303194 17.253 -1.62708 2.83337 10.7178 0.989095
lowerback 7.55897 2.17401 -3.625
upperback 11.6222 2.70305 3.65686
thorax 7.72605 0.904193 5.89733
lowerneck 23.999 -18.5211 -28.003
upperneck 23.8314 -31.7403 14.1869
head 11.2822 -17.1098 6.731
rclavicle 3.49861e-014 -1.59028e-015
rhumerus 65.8079 -5.96809 -103.919
rradius 16.9295
rwrist 77.5402
rhand -48.4333 32.8142
rfingers 7.12502
rthumb -21.0847 3.94054
lclavicle 3.49861e-014 -1.59028e-015
lhumerus 46.8517 24.7222 12.7241
lradius 116.178
lwrist 56.9114
lhand 18.4539 22.4571
lfingers 7.12502
lthumb 43.0922 46.6703
rfemur -11.6306 4.30306 16.0076
rtibia 24.3775
rfoot -13.3353 -14.8506
rtoes -26.4377
lfemur -16.4142 -17.4159 -18.1792
ltibia 25.2155
lfoot -11.6507 1.86137
ltoes -23.3235
2010
root 0.303528 17.2529 -1.64669 3.05683 10.9194 1.03954
lowerback 7.78431 2.17073 -3.47961
upperback 11.7766 2.69585 3.70532
thorax 7.77509 0.906518 5.86465
lowerneck 23.8367 -18.6321 -27.8801
upperneck 24.0696 -31.7705 13.9646
head 11.3433 -17.1013 6.61482
rclavicle -3.10104e-014 -4.13472e-014
rhumerus 65.7422 -6.21409 -104.242
rradius 16.9814
rwrist 77.8801
rhand -48.0886 33.1178
rfingers 7.12502
rthumb -20.7535 4.20762
lclavicle -3.10104e-014 -4.13472e-014
lhumerus 46.6898 24.7968 12.2656
lradius 116.19
lwrist 56.8443
lhand 18.4106 22.371
lfingers 7.12502
lthumb 43.0517 46.5986
rfemur -11.9532 4.25695 15.911
rtibia 24.4307
rfoot -13.4586 -14.9979
rtoes -26.2164
lfemur -16.7006 -17.5047 -18.149
ltibia 25.0648
lfoot -11.4362 1.6893
ltoes -22.9841
2011
root 0.304417 17.2533 -1.66372 3.31154 11.1148 1.15721
lowerback 7.90588 2.18251 -3.40044
upperback 11.8682 2.71166 3.71649
thorax 7.80901 0.918436 5.83046
lowerneck 23.9005 -18.6864 -27.7477
upperneck 24.2547 -31.7827 13.8392
head 11.3649 -17.097 6.56426
rclavicle 3.33958e-014 -2.78299e-014
rhumerus 65.5404 -6.59247 -104.669
rradius 17.0102
rwrist 78.4074
rhand -48.6477 33.9435
rfingers 7.12502
rthumb -21.2907 5.09292
lclavicle 3.33958e-014 -2.78299e-014
lhumerus 46.5956 24.7413 11.831
lradius 116.266
lwrist 56.8639
lhand 18.2044 22.2783
lfingers 7.12502
lthumb 42.8589 46.5739
rfemur -12.2558 4.15301 15.7465
rtibia 24.4353
rfoot -13.0146 -15.183
rtoes -27.5339
lfemur -17.0086 -17.5533 -18.1954
ltibia 24.9278
lfoot -11.2035 1.54067
ltoes -22.9883
